<svg width="60" height="64" viewBox="0 0 60 64" fill="none" xmlns="http://www.w3.org/2000/svg">
<rect width="60" height="64" rx="10" fill="#127DD3"/>
<path opacity="0.4" d="M37.207 25.9478C36.9141 25.9478 36.6212 25.8399 36.39 25.6087C35.9429 25.1616 35.9429 24.4216 36.39 23.9745L39.5503 20.8141C36.837 18.5016 33.3374 17.0833 29.4987 17.0833C20.9887 17.0833 14.082 23.9899 14.082 32.4999C14.082 41.0099 20.9887 47.9166 29.4987 47.9166C38.0087 47.9166 44.9154 41.0099 44.9154 32.4999C44.9154 28.6612 43.497 25.1616 41.1845 22.4483L38.0241 25.6087C37.7929 25.8399 37.4999 25.9478 37.207 25.9478Z" fill="white"/>
<path d="M36.1579 33.8834H34.0526V32.1066H36.1579C36.4587 32.1066 36.7366 31.9375 36.8871 31.6625C37.0376 31.3876 37.0376 31.049 36.8871 30.7741C36.7366 30.4994 36.4587 30.33 36.1579 30.33H34.0526V25.8884C34.0526 25.5708 33.8921 25.2777 33.6316 25.1189C33.371 24.9604 33.0501 24.9604 32.7895 25.1189C32.5288 25.2777 32.3685 25.5708 32.3685 25.8884V30.33H28.8569L27.1728 26.0927H27.1726C26.9648 25.5948 26.5521 25.2249 26.0529 25.0886C25.5537 24.9525 25.0229 25.065 24.6123 25.3942C24.2017 25.7233 23.9567 26.2328 23.9474 26.7766V30.33H21.8421C21.5413 30.33 21.2634 30.4994 21.1129 30.7741C20.9624 31.0491 20.9624 31.3876 21.1129 31.6625C21.2634 31.9375 21.5413 32.1066 21.8421 32.1066H23.9474V33.8832L21.8421 33.8834C21.5413 33.8834 21.2634 34.0526 21.1129 34.3275C20.9624 34.6025 20.9624 34.941 21.1129 35.2159C21.2634 35.4907 21.5413 35.6601 21.8421 35.6601H23.9474V40.1017C23.9474 40.4192 24.1079 40.7124 24.3684 40.8711C24.629 41.0297 24.9499 41.0297 25.2105 40.8711C25.4712 40.7124 25.6315 40.4192 25.6315 40.1017V35.6601H29.1431L30.8272 39.8974H30.8274C30.9545 40.2188 31.1682 40.4938 31.4423 40.688C31.7163 40.8823 32.0382 40.9873 32.3685 40.9901C32.4804 41.0033 32.5933 41.0033 32.7052 40.9901C33.0913 40.907 33.4378 40.6837 33.6839 40.3592C33.9301 40.0344 34.0605 39.6291 34.0526 39.2135V35.66H36.1579C36.4587 35.66 36.7366 35.4907 36.8871 35.2159C37.0376 34.941 37.0376 34.6025 36.8871 34.3275C36.7366 34.0526 36.4587 33.8834 36.1579 33.8834L36.1579 33.8834ZM32.3685 32.1066V33.8833L30.2632 33.8834L29.5643 32.1068L32.3685 32.1066ZM25.6313 26.7766L27.0376 30.33H25.6313V26.7766ZM25.6313 33.8832V32.1065H27.7367L28.4355 33.8832H25.6313ZM32.368 39.2132L30.9618 35.6598L32.3682 35.66L32.368 39.2132Z" fill="white"/>
<path d="M45.9802 16.6362C45.8569 16.3587 45.6411 16.1275 45.3481 16.0041C45.2094 15.9425 45.0552 15.9116 44.901 15.9116H38.7344C38.1023 15.9116 37.5781 16.4358 37.5781 17.0679C37.5781 17.7 38.1023 18.2241 38.7344 18.2241H42.1106L39.5361 20.7987C40.1219 21.3075 40.6615 21.847 41.1702 22.4329L43.7448 19.8583V23.25C43.7448 23.882 44.269 24.4062 44.901 24.4062C45.5331 24.4062 46.0573 23.882 46.0573 23.25V17.0833C46.0727 16.9291 46.0419 16.7904 45.9802 16.6362Z" fill="white"/>
</svg>
