<svg width="39" height="40" viewBox="0 0 39 40" fill="none" xmlns="http://www.w3.org/2000/svg">
<rect width="39" height="40" rx="10" fill="#F5F5F5"/>
<path d="M27 16C28.6569 16 30 14.6569 30 13C30 11.3431 28.6569 10 27 10C25.3431 10 24 11.3431 24 13C24 14.6569 25.3431 16 27 16Z" fill="#83C4F9"/>
<path d="M27 17.5C24.52 17.5 22.5 15.48 22.5 13C22.5 12.28 22.69 11.61 22.99 11H15.52C12.07 11 10 13.06 10 16.52V24.47C10 27.94 12.07 30 15.52 30H23.47C26.93 30 28.99 27.94 28.99 24.48V17.01C28.39 17.31 27.72 17.5 27 17.5Z" fill="#127DD3"/>
</svg>
