<svg width="47" height="48" viewBox="0 0 47 48" fill="none" xmlns="http://www.w3.org/2000/svg">
<rect width="47" height="48" rx="10" fill="#F5F5F5"/>
<path opacity="0.4" d="M32.811 25.8894C32.1635 26.5215 31.7935 27.4311 31.886 28.4023C32.0248 30.0673 33.551 31.2852 35.216 31.2852H38.1452V33.1198C38.1452 36.3111 35.5398 38.9165 32.3485 38.9165H14.6502C11.4589 38.9165 8.85352 36.3111 8.85352 33.1198V22.7444C8.85352 19.5532 11.4589 16.9478 14.6502 16.9478H32.3485C35.5398 16.9478 38.1452 19.5532 38.1452 22.7444V24.9644H35.031C34.1677 24.9644 33.3814 25.3036 32.811 25.8894Z" fill="#127DD3"/>
<path d="M27.8931 11.0896V16.9479H14.6502C11.4589 16.9479 8.85352 19.5533 8.85352 22.7446V17.0867C8.85352 15.2521 9.97893 13.6179 11.6902 12.9704L23.931 8.34538C25.8427 7.63621 27.8931 9.03917 27.8931 11.0896Z" fill="#127DD3"/>
<path d="M39.7804 26.5373V29.7132C39.7804 30.5611 39.1021 31.2548 38.2388 31.2856H35.2171C33.5521 31.2856 32.0259 30.0677 31.8871 28.4027C31.7946 27.4315 32.1646 26.5219 32.8121 25.8898C33.3825 25.304 34.1688 24.9648 35.0321 24.9648H38.2388C39.1021 24.9957 39.7804 25.6894 39.7804 26.5373Z" fill="#127DD3"/>
<path d="M26.5827 24.6562H15.791C15.1589 24.6562 14.6348 24.1321 14.6348 23.5C14.6348 22.8679 15.1589 22.3438 15.791 22.3438H26.5827C27.2148 22.3438 27.7389 22.8679 27.7389 23.5C27.7389 24.1321 27.2148 24.6562 26.5827 24.6562Z" fill="#127DD3"/>
</svg>
