<svg width="47" height="48" viewBox="0 0 47 48" fill="none" xmlns="http://www.w3.org/2000/svg">
<rect width="47" height="48" rx="10" fill="#F5F5F5"/>
<path opacity="0.4" d="M15.3761 35.371C16.6402 34.0143 18.5673 34.1222 19.6773 35.6022L21.2344 37.6835C22.4832 39.3331 24.5027 39.3331 25.7515 37.6835L27.3086 35.6022C28.4186 34.1222 30.3457 34.0143 31.6098 35.371C34.354 38.3002 36.5894 37.3289 36.5894 33.2281V15.8535C36.6048 9.64058 35.1557 8.0835 29.3282 8.0835H17.6732C11.8457 8.0835 10.3965 9.64058 10.3965 15.8535V33.2127C10.3965 37.3289 12.6473 38.2847 15.3761 35.371Z" fill="#5D5FEF"/>
<path d="M30.0221 23.1147H21.543C20.9109 23.1147 20.3867 22.5906 20.3867 21.9585C20.3867 21.3264 20.9109 20.8022 21.543 20.8022H30.0221C30.6542 20.8022 31.1784 21.3264 31.1784 21.9585C31.1784 22.5906 30.6542 23.1147 30.0221 23.1147Z" fill="#5D5FEF"/>
<path d="M30.0221 16.9478H21.543C20.9109 16.9478 20.3867 16.4236 20.3867 15.7915C20.3867 15.1594 20.9109 14.6353 21.543 14.6353H30.0221C30.6542 14.6353 31.1784 15.1594 31.1784 15.7915C31.1784 16.4236 30.6542 16.9478 30.0221 16.9478Z" fill="#5D5FEF"/>
<path d="M16.9948 17.3333C16.1469 17.3333 15.4531 16.6396 15.4531 15.7917C15.4531 14.9438 16.1469 14.25 16.9948 14.25C17.8427 14.25 18.5365 14.9438 18.5365 15.7917C18.5365 16.6396 17.8427 17.3333 16.9948 17.3333Z" fill="#5D5FEF"/>
<path d="M16.9948 23.4998C16.1469 23.4998 15.4531 22.8061 15.4531 21.9582C15.4531 21.1103 16.1469 20.4165 16.9948 20.4165C17.8427 20.4165 18.5365 21.1103 18.5365 21.9582C18.5365 22.8061 17.8427 23.4998 16.9948 23.4998Z" fill="#5D5FEF"/>
</svg>
