<svg width="47" height="48" viewBox="0 0 47 48" fill="none" xmlns="http://www.w3.org/2000/svg">
<rect width="47" height="48" rx="10" fill="#F5F5F5"/>
<path opacity="0.4" d="M34.7546 18.21V26.1497C34.7546 30.898 32.0413 32.9329 27.9713 32.9329H14.42C13.7263 32.9329 13.0634 32.8714 12.4467 32.7326C12.0613 32.6709 11.6913 32.563 11.3521 32.4397C9.03964 31.5763 7.63672 29.5722 7.63672 26.1497V18.21C7.63672 13.4617 10.35 11.4268 14.42 11.4268H27.9713C31.4246 11.4268 33.9067 12.8913 34.5696 16.2368C34.6776 16.8534 34.7546 17.4855 34.7546 18.21Z" fill="#83C4F9"/>
<path d="M39.3782 22.8351V30.7747C39.3782 35.5231 36.6649 37.558 32.5949 37.558H19.0436C17.9028 37.558 16.8699 37.4039 15.9757 37.0647C14.1412 36.3864 12.8924 34.9835 12.4453 32.7327C13.062 32.8714 13.7249 32.933 14.4186 32.933H27.9699C32.0399 32.933 34.7532 30.8981 34.7532 26.1497V18.2101C34.7532 17.4855 34.6916 16.8381 34.5682 16.2368C37.4974 16.8535 39.3782 18.9193 39.3782 22.8351Z" fill="#83C4F9"/>
<path d="M21.1872 26.2577C23.435 26.2577 25.2572 24.4355 25.2572 22.1877C25.2572 19.9399 23.435 18.1177 21.1872 18.1177C18.9394 18.1177 17.1172 19.9399 17.1172 22.1877C17.1172 24.4355 18.9394 26.2577 21.1872 26.2577Z" fill="#83C4F9"/>
<path d="M12.3691 18.7188C11.7371 18.7188 11.2129 19.2429 11.2129 19.875V24.5C11.2129 25.1321 11.7371 25.6562 12.3691 25.6562C13.0012 25.6562 13.5254 25.1321 13.5254 24.5V19.875C13.5254 19.2429 13.0166 18.7188 12.3691 18.7188Z" fill="#83C4F9"/>
<path d="M29.9902 18.7188C29.3582 18.7188 28.834 19.2429 28.834 19.875V24.5C28.834 25.1321 29.3582 25.6562 29.9902 25.6562C30.6223 25.6562 31.1465 25.1321 31.1465 24.5V19.875C31.1465 19.2429 30.6377 18.7188 29.9902 18.7188Z" fill="#83C4F9"/>
</svg>
