<svg width="47" height="48" viewBox="0 0 47 48" fill="none" xmlns="http://www.w3.org/2000/svg">
<rect width="47" height="48" rx="10" fill="#F5F5F5"/>
<path opacity="0.4" d="M18.8737 8.0835C14.8345 8.0835 11.5508 11.3672 11.5508 15.4064C11.5508 19.3685 14.6495 22.5752 18.6887 22.7139C18.812 22.6985 18.9354 22.6985 19.0279 22.7139C19.0587 22.7139 19.0741 22.7139 19.1049 22.7139C19.1204 22.7139 19.1204 22.7139 19.1358 22.7139C23.0824 22.5752 26.1812 19.3685 26.1966 15.4064C26.1966 11.3672 22.9129 8.0835 18.8737 8.0835Z" fill="#FFCD4E"/>
<path d="M26.7065 26.8147C22.4052 23.9472 15.3907 23.9472 11.0586 26.8147C9.10065 28.1251 8.02148 29.898 8.02148 31.7943C8.02148 33.6905 9.10065 35.448 11.0432 36.743C13.2015 38.1922 16.0382 38.9168 18.8748 38.9168C21.7115 38.9168 24.5482 38.1922 26.7065 36.743C28.649 35.4326 29.7282 33.6751 29.7282 31.7634C29.7127 29.8672 28.649 28.1097 26.7065 26.8147Z" fill="#FFCD4E"/>
<path opacity="0.4" d="M35.8189 16.3159C36.0656 19.3067 33.9381 21.9276 30.9935 22.2822C30.9781 22.2822 30.9781 22.2822 30.9627 22.2822H30.9164C30.8239 22.2822 30.7314 22.2822 30.6543 22.313C29.1589 22.3901 27.7868 21.9122 26.7539 21.0334C28.3418 19.6151 29.2514 17.4876 29.0664 15.1751C28.9585 13.9263 28.5268 12.7855 27.8793 11.8142C28.4652 11.5213 29.1435 11.3363 29.8372 11.2747C32.8589 11.0126 35.5568 13.2634 35.8189 16.3159Z" fill="#FFCD4E"/>
<path d="M38.8997 30.576C38.7764 32.0715 37.8206 33.3665 36.2172 34.2452C34.6756 35.0931 32.7331 35.494 30.806 35.4477C31.916 34.4456 32.5635 33.1969 32.6868 31.871C32.841 29.9594 31.9314 28.1248 30.1122 26.6602C29.0793 25.8431 27.8768 25.1956 26.5664 24.7177C29.9735 23.731 34.2593 24.394 36.8956 26.5215C38.3139 27.6623 39.0385 29.096 38.8997 30.576Z" fill="#FFCD4E"/>
</svg>
