<svg width="124" height="76" viewBox="0 0 124 76" fill="none" xmlns="http://www.w3.org/2000/svg">
<g opacity="0.7" filter="url(#filter0_d_316_12105)">
<path d="M2.51562 43.7654C2.51562 43.7654 9.87582 24.0768 17.5986 21.1036C25.3214 18.1303 47.2569 42.6413 56.1036 36.4411C64.9504 30.2408 54.4721 12.1839 68.9387 9.64577C83.4053 7.10765 82.5351 46.6661 91.2368 43.7654C99.9385 40.8647 92.6687 28.3268 100.011 26.4699C102.4 25.8658 103.782 28.3916 106.32 26.4699C108.858 24.5482 113.861 1.70508 113.861 1.70508" stroke="#FFCD4E" stroke-width="2"/>
<path d="M17.5986 21.1036C9.87582 24.0768 2.51562 43.7654 2.51562 43.7654V67.66H113.861V1.70508C113.861 1.70508 108.858 24.5482 106.32 26.4699C103.782 28.3916 102.4 25.8658 100.011 26.4699C92.6687 28.3268 99.9385 40.8647 91.2368 43.7654C82.5351 46.6661 83.4053 7.10765 68.9387 9.64577C54.4721 12.1839 64.9504 30.2408 56.1036 36.4411C47.2569 42.6413 25.3214 18.1303 17.5986 21.1036Z" fill="url(#paint0_linear_316_12105)"/>
<ellipse cx="19.121" cy="20.9571" rx="2.82806" ry="2.82819" fill="white"/>
<ellipse cx="69.664" cy="9.86139" rx="2.82806" ry="2.82819" fill="white"/>
<ellipse cx="113.172" cy="2.82819" rx="2.82806" ry="2.82819" fill="white"/>
<ellipse cx="91.2734" cy="43.2208" rx="2.82806" ry="2.82819" fill="white"/>
<ellipse cx="53.8554" cy="36.9844" rx="2.82806" ry="2.82819" fill="white"/>
<ellipse cx="2.82806" cy="42.502" rx="2.82806" ry="2.82819" fill="white"/>
<ellipse cx="98.6679" cy="26.3946" rx="2.82806" ry="2.82819" fill="white"/>
</g>
<defs>
<filter id="filter0_d_316_12105" x="0" y="0" width="124" height="75.6602" filterUnits="userSpaceOnUse" color-interpolation-filters="sRGB">
<feFlood flood-opacity="0" result="BackgroundImageFix"/>
<feColorMatrix in="SourceAlpha" type="matrix" values="0 0 0 0 0 0 0 0 0 0 0 0 0 0 0 0 0 0 127 0" result="hardAlpha"/>
<feOffset dx="4" dy="4"/>
<feGaussianBlur stdDeviation="2"/>
<feComposite in2="hardAlpha" operator="out"/>
<feColorMatrix type="matrix" values="0 0 0 0 1 0 0 0 0 1 0 0 0 0 1 0 0 0 0.04 0"/>
<feBlend mode="normal" in2="BackgroundImageFix" result="effect1_dropShadow_316_12105"/>
<feBlend mode="normal" in="SourceGraphic" in2="effect1_dropShadow_316_12105" result="shape"/>
</filter>
<linearGradient id="paint0_linear_316_12105" x1="58.1884" y1="1.70508" x2="58.1884" y2="67.66" gradientUnits="userSpaceOnUse">
<stop offset="0.536458" stop-color="#FFCD4E"/>
<stop offset="1" stop-color="#FFCD4E" stop-opacity="0"/>
</linearGradient>
</defs>
</svg>
