<svg width="47" height="48" viewBox="0 0 47 48" fill="none" xmlns="http://www.w3.org/2000/svg">
<rect width="47" height="48" rx="10" fill="#F5F5F5"/>
<path opacity="0.4" d="M32.811 25.8896C32.1635 26.5217 31.7935 27.4313 31.886 28.4026C32.0248 30.0676 33.551 31.2855 35.216 31.2855H38.1452V33.1201C38.1452 36.3113 35.5398 38.9167 32.3485 38.9167H14.6502C11.4589 38.9167 8.85352 36.3113 8.85352 33.1201V22.7447C8.85352 19.5534 11.4589 16.948 14.6502 16.948H32.3485C35.5398 16.948 38.1452 19.5534 38.1452 22.7447V24.9647H35.031C34.1677 24.9647 33.3814 25.3038 32.811 25.8896Z" fill="#127DD3"/>
<path d="M27.8931 11.0896V16.9479H14.6502C11.4589 16.9479 8.85352 19.5533 8.85352 22.7446V17.0867C8.85352 15.2521 9.97893 13.6179 11.6902 12.9704L23.931 8.34538C25.8427 7.63621 27.8931 9.03917 27.8931 11.0896Z" fill="#127DD3"/>
<path d="M39.7804 26.537V29.713C39.7804 30.5609 39.1021 31.2546 38.2388 31.2854H35.2171C33.5521 31.2854 32.0259 30.0675 31.8871 28.4025C31.7946 27.4312 32.1646 26.5216 32.8121 25.8896C33.3825 25.3037 34.1688 24.9646 35.0321 24.9646H38.2388C39.1021 24.9954 39.7804 25.6891 39.7804 26.537Z" fill="#127DD3"/>
<path d="M26.5827 24.6562H15.791C15.1589 24.6562 14.6348 24.1321 14.6348 23.5C14.6348 22.8679 15.1589 22.3438 15.791 22.3438H26.5827C27.2148 22.3438 27.7389 22.8679 27.7389 23.5C27.7389 24.1321 27.2148 24.6562 26.5827 24.6562Z" fill="#127DD3"/>
</svg>
