<svg width="124" height="76" viewBox="0 0 124 76" fill="none" xmlns="http://www.w3.org/2000/svg">
<g opacity="0.7" filter="url(#filter0_d_316_12037)">
<path d="M2.51562 43.7633C2.51562 43.7633 9.87582 24.0757 17.5986 21.1026C25.3214 18.1296 47.2569 42.6394 56.1036 36.4394C64.9504 30.2394 54.4721 12.1834 68.9387 9.64539C83.4053 7.10739 82.5351 46.6639 91.2368 43.7633C99.9385 40.8628 92.6687 28.3255 100.011 26.4687C102.4 25.8647 103.782 28.3903 106.32 26.4687C108.858 24.5471 113.861 1.70508 113.861 1.70508" stroke="#127DD3" stroke-width="2"/>
<path d="M17.5986 21.1026C9.87582 24.0757 2.51562 43.7633 2.51562 43.7633V67.6568H113.861V1.70508C113.861 1.70508 108.858 24.5471 106.32 26.4687C103.782 28.3903 102.4 25.8647 100.011 26.4687C92.6687 28.3255 99.9385 40.8628 91.2368 43.7633C82.5351 46.6639 83.4053 7.10739 68.9387 9.64539C54.4721 12.1834 64.9504 30.2394 56.1036 36.4394C47.2569 42.6394 25.3214 18.1296 17.5986 21.1026Z" fill="url(#paint0_linear_316_12037)"/>
<circle cx="19.121" cy="20.956" r="2.82806" fill="white"/>
<circle cx="69.664" cy="9.86126" r="2.82806" fill="white"/>
<circle cx="113.172" cy="2.82806" r="2.82806" fill="white"/>
<circle cx="91.2734" cy="43.2182" r="2.82806" fill="white"/>
<circle cx="53.8554" cy="36.9828" r="2.82806" fill="white"/>
<circle cx="2.82806" cy="42.4994" r="2.82806" fill="white"/>
<circle cx="98.6699" cy="26.3945" r="2.82806" fill="white"/>
</g>
<defs>
<filter id="filter0_d_316_12037" x="0" y="0" width="124" height="75.6567" filterUnits="userSpaceOnUse" color-interpolation-filters="sRGB">
<feFlood flood-opacity="0" result="BackgroundImageFix"/>
<feColorMatrix in="SourceAlpha" type="matrix" values="0 0 0 0 0 0 0 0 0 0 0 0 0 0 0 0 0 0 127 0" result="hardAlpha"/>
<feOffset dx="4" dy="4"/>
<feGaussianBlur stdDeviation="2"/>
<feComposite in2="hardAlpha" operator="out"/>
<feColorMatrix type="matrix" values="0 0 0 0 1 0 0 0 0 1 0 0 0 0 1 0 0 0 0.04 0"/>
<feBlend mode="normal" in2="BackgroundImageFix" result="effect1_dropShadow_316_12037"/>
<feBlend mode="normal" in="SourceGraphic" in2="effect1_dropShadow_316_12037" result="shape"/>
</filter>
<linearGradient id="paint0_linear_316_12037" x1="58.1884" y1="20.16" x2="58.1884" y2="70.1585" gradientUnits="userSpaceOnUse">
<stop stop-color="#4D897C"/>
<stop offset="1" stop-color="#4D897C" stop-opacity="0"/>
</linearGradient>
</defs>
</svg>
