<svg width="39" height="40" viewBox="0 0 39 40" fill="none" xmlns="http://www.w3.org/2000/svg">
<rect width="39" height="40" rx="10" fill="white"/>
<path opacity="0.4" d="M28.6016 12.1V14.3C28.6016 15.1 28.1016 16.1 27.6016 16.6L23.3016 20.4C22.7016 20.9 22.3016 21.9 22.3016 22.7V27C22.3016 27.6 21.9016 28.4 21.4016 28.7L20.0016 29.6C18.7016 30.4 16.9016 29.5 16.9016 27.9V22.6C16.9016 21.9 16.5016 21 16.1016 20.5L15.1016 19.45L20.9216 10.1H26.6016C27.7016 10.1 28.6016 11 28.6016 12.1Z" fill="#292D32"/>
<path d="M19.2984 10.1L14.1184 18.41L12.2984 16.5C11.7984 16 11.3984 15.1 11.3984 14.5V12.2C11.3984 11 12.2984 10.1 13.3984 10.1H19.2984Z" fill="#292D32"/>
</svg>
