<svg width="39" height="40" viewBox="0 0 39 40" fill="none" xmlns="http://www.w3.org/2000/svg">
<rect width="39" height="40" rx="10" fill="white"/>
<path opacity="0.4" d="M28.6016 12.1001V14.3001C28.6016 15.1001 28.1016 16.1001 27.6016 16.6001L23.3016 20.4001C22.7016 20.9001 22.3016 21.9001 22.3016 22.7001V27.0001C22.3016 27.6001 21.9016 28.4001 21.4016 28.7001L20.0016 29.6001C18.7016 30.4001 16.9016 29.5001 16.9016 27.9001V22.6001C16.9016 21.9001 16.5016 21.0001 16.1016 20.5001L15.1016 19.4501L20.9216 10.1001H26.6016C27.7016 10.1001 28.6016 11.0001 28.6016 12.1001Z" fill="#292D32"/>
<path d="M19.2984 10.1001L14.1184 18.4101L12.2984 16.5001C11.7984 16.0001 11.3984 15.1001 11.3984 14.5001V12.2001C11.3984 11.0001 12.2984 10.1001 13.3984 10.1001H19.2984Z" fill="#292D32"/>
</svg>
