<svg width="24" height="25" viewBox="0 0 24 25" fill="none" xmlns="http://www.w3.org/2000/svg">
<path d="M5.55604 25H18.444C21.8381 25 23.1908 22.8875 23.3507 20.3125L23.9902 9.9875C24.1624 7.2875 22.0472 5 19.3786 5C18.6284 5 17.9398 4.5625 17.5954 3.8875L16.71 2.075C16.1443 0.9375 14.6686 0 13.4142 0H10.5981C9.33141 0 7.8557 0.9375 7.29001 2.075L6.40458 3.8875C6.06025 4.5625 5.37158 5 4.62142 5C1.95284 5 -0.162353 7.2875 0.00981355 9.9875L0.64929 20.3125C0.796862 22.8875 2.1619 25 5.55604 25Z" fill="#127DD3"/>
</svg>
