<svg width="38" height="37" viewBox="0 0 38 37" fill="none" xmlns="http://www.w3.org/2000/svg">
<g clip-path="url(#clip0_337_7546)">
<path opacity="0.4" d="M26.5156 11.9481C26.2227 11.9481 25.9298 11.8402 25.6985 11.6089C25.2515 11.1618 25.2515 10.4218 25.6985 9.97475L28.8589 6.81433C26.1456 4.50183 22.646 3.0835 18.8073 3.0835C10.2973 3.0835 3.39062 9.99016 3.39062 18.5002C3.39062 27.0102 10.2973 33.9168 18.8073 33.9168C27.3173 33.9168 34.224 27.0102 34.224 18.5002C34.224 14.6614 32.8056 11.1618 30.4931 8.4485L27.3327 11.6089C27.1015 11.8402 26.8085 11.9481 26.5156 11.9481Z" fill="white"/>
<path d="M25.4646 19.8834H23.3593V18.1066H25.4646C25.7654 18.1066 26.0433 17.9375 26.1938 17.6625C26.3443 17.3876 26.3443 17.049 26.1938 16.7741C26.0433 16.4994 25.7654 16.33 25.4646 16.33H23.3593V11.8884C23.3593 11.5708 23.1987 11.2777 22.9383 11.1189C22.6776 10.9604 22.3567 10.9604 22.0961 11.1189C21.8355 11.2777 21.6751 11.5708 21.6751 11.8884V16.33H18.1635L16.4794 12.0927H16.4792C16.2715 11.5948 15.8587 11.2249 15.3595 11.0886C14.8603 10.9525 14.3295 11.065 13.9189 11.3942C13.5083 11.7233 13.2634 12.2328 13.254 12.7766V16.33H11.1487C10.8479 16.33 10.57 16.4994 10.4195 16.7741C10.269 17.0491 10.269 17.3876 10.4195 17.6625C10.57 17.9375 10.8479 18.1066 11.1487 18.1066H13.254V19.8832L11.1487 19.8834C10.8479 19.8834 10.57 20.0526 10.4195 20.3275C10.269 20.6025 10.269 20.941 10.4195 21.2159C10.57 21.4907 10.8479 21.6601 11.1487 21.6601H13.254V26.1017C13.254 26.4192 13.4146 26.7124 13.675 26.8711C13.9356 27.0297 14.2566 27.0297 14.5172 26.8711C14.7778 26.7124 14.9382 26.4192 14.9382 26.1017V21.6601H18.4497L20.1339 25.8974H20.1341C20.2611 26.2188 20.4749 26.4938 20.7489 26.688C21.0229 26.8823 21.3449 26.9873 21.6751 26.9901C21.787 27.0033 21.9 27.0033 22.0119 26.9901C22.398 26.907 22.7444 26.6837 22.9906 26.3592C23.2368 26.0344 23.3672 25.6291 23.3592 25.2135V21.66H25.4646C25.7654 21.66 26.0433 21.4907 26.1938 21.2159C26.3442 20.941 26.3442 20.6025 26.1938 20.3275C26.0433 20.0526 25.7654 19.8834 25.4646 19.8834L25.4646 19.8834ZM21.6751 18.1066V19.8833L19.5698 19.8834L18.8709 18.1068L21.6751 18.1066ZM14.938 12.7766L16.3442 16.33H14.938V12.7766ZM14.938 19.8832V18.1065H17.0433L17.7422 19.8832H14.938ZM21.6747 25.2132L20.2684 21.6598L21.6748 21.66L21.6747 25.2132Z" fill="white"/>
<path d="M35.2869 2.63621C35.1635 2.35871 34.9477 2.12746 34.6548 2.00413C34.516 1.94246 34.3618 1.91162 34.2077 1.91162H28.041C27.4089 1.91162 26.8848 2.43579 26.8848 3.06787C26.8848 3.69995 27.4089 4.22412 28.041 4.22412H31.4173L28.8427 6.79871C29.4285 7.30746 29.9681 7.84704 30.4769 8.43288L33.0514 5.8583V9.24996C33.0514 9.88204 33.5756 10.4062 34.2077 10.4062C34.8398 10.4062 35.3639 9.88204 35.3639 9.24996V3.08329C35.3793 2.92912 35.3485 2.79037 35.2869 2.63621Z" fill="white"/>
</g>
<defs>
<clipPath id="clip0_337_7546">
<rect width="37" height="37" fill="white" transform="translate(0.306641)"/>
</clipPath>
</defs>
</svg>
