<svg width="17" height="17" viewBox="0 0 17 17" fill="none" xmlns="http://www.w3.org/2000/svg">
<path opacity="0.4" d="M7.43761 11.3332H9.56261C11.3334 11.3332 12.3959 10.0582 12.3959 8.49984V4.89442C12.3959 4.15067 11.7868 3.5415 11.043 3.5415H5.96428C5.22053 3.5415 4.61136 4.15067 4.61136 4.89442V8.49984C4.60428 10.0582 5.66677 11.3332 7.43761 11.3332Z" fill="#DE1306"/>
<path d="M7.25977 1.4165V3.5415H6.19727V1.4165C6.19727 1.12609 6.4381 0.885254 6.72852 0.885254C7.01893 0.885254 7.25977 1.12609 7.25977 1.4165Z" fill="#DE1306"/>
<path d="M10.8027 1.4165V3.5415H9.74023V1.4165C9.74023 1.12609 9.98107 0.885254 10.2715 0.885254C10.5619 0.885254 10.8027 1.12609 10.8027 1.4165Z" fill="#DE1306"/>
<path d="M9.03125 11.3335V15.5835C9.03125 15.8739 8.79042 16.1147 8.5 16.1147C8.20958 16.1147 7.96875 15.8739 7.96875 15.5835V11.3335H9.03125Z" fill="#DE1306"/>
</svg>
