<svg width="24" height="24" viewBox="0 0 24 24" fill="none" xmlns="http://www.w3.org/2000/svg">
<path d="M7.24 2H5.34C3.15 2 2 3.15 2 5.33V7.23C2 9.41 3.15 10.56 5.33 10.56H7.23C9.41 10.56 10.56 9.41 10.56 7.23V5.33C10.57 3.15 9.42 2 7.24 2Z" fill="#127DD3"/>
<path opacity="0.4" d="M18.6714 2H16.7714C14.5914 2 13.4414 3.15 13.4414 5.33V7.23C13.4414 9.41 14.5914 10.56 16.7714 10.56H18.6714C20.8514 10.56 22.0014 9.41 22.0014 7.23V5.33C22.0014 3.15 20.8514 2 18.6714 2Z" fill="#127DD3"/>
<path d="M18.6714 13.4302H16.7714C14.5914 13.4302 13.4414 14.5802 13.4414 16.7602V18.6602C13.4414 20.8402 14.5914 21.9902 16.7714 21.9902H18.6714C20.8514 21.9902 22.0014 20.8402 22.0014 18.6602V16.7602C22.0014 14.5802 20.8514 13.4302 18.6714 13.4302Z" fill="#127DD3"/>
<path opacity="0.4" d="M7.24 13.4302H5.34C3.15 13.4302 2 14.5802 2 16.7602V18.6602C2 20.8502 3.15 22.0002 5.33 22.0002H7.23C9.41 22.0002 10.56 20.8502 10.56 18.6702V16.7702C10.57 14.5802 9.42 13.4302 7.24 13.4302Z" fill="#127DD3"/>
</svg>
