<svg width="17" height="17" viewBox="0 0 17 17" fill="none" xmlns="http://www.w3.org/2000/svg">
<path opacity="0.4" d="M13.3242 4.42676H14.2876C14.153 4.23551 14.0113 4.05843 13.8626 3.88135L13.3242 4.42676Z" fill="white"/>
<path opacity="0.4" d="M13.1177 3.13057C12.9406 2.98182 12.7635 2.84015 12.5723 2.70557V3.6689L13.1177 3.13057Z" fill="white"/>
<path opacity="0.4" d="M12.041 5.48942C11.9702 5.48942 11.9064 5.47526 11.8356 5.44692C11.7081 5.39026 11.6018 5.29109 11.5452 5.1565C11.5168 5.09275 11.5027 5.02192 11.5027 4.95109V2.11775C11.5027 2.11067 11.5098 2.10359 11.5098 2.08942C10.596 1.66442 9.57602 1.4165 8.49935 1.4165C4.58935 1.4165 1.41602 4.58984 1.41602 8.49984C1.41602 12.4098 4.58935 15.5832 8.49935 15.5832C12.4093 15.5832 15.5827 12.4098 15.5827 8.49984C15.5827 7.42317 15.3348 6.40317 14.9027 5.48234C14.8956 5.48234 14.8885 5.48942 14.8743 5.48942H12.041Z" fill="white"/>
<path d="M13.868 3.88169L15.9576 1.7921C16.163 1.58668 16.163 1.24669 15.9576 1.04127C15.7522 0.835853 15.4122 0.835853 15.2068 1.04127L13.1172 3.13085C13.3864 3.3646 13.6343 3.6196 13.868 3.88169Z" fill="white"/>
<path d="M12.573 2.125C12.573 1.83458 12.3322 1.59375 12.0417 1.59375C11.7584 1.59375 11.5317 1.82042 11.5176 2.09667C11.8859 2.27375 12.2401 2.47208 12.573 2.70583V2.125Z" fill="white"/>
<path d="M15.4043 4.9585C15.4043 4.66808 15.1635 4.42725 14.8731 4.42725H14.2852C14.5189 4.76016 14.7243 5.11433 14.8943 5.48266C15.1776 5.46849 15.4043 5.24183 15.4043 4.9585Z" fill="white"/>
<path d="M9.73893 8.3725L9.0306 8.12458V6.55208H9.08726C9.44851 6.55208 9.73893 6.87083 9.73893 7.26042C9.73893 7.55083 9.97977 7.79167 10.2702 7.79167C10.5606 7.79167 10.8014 7.55083 10.8014 7.26042C10.8014 6.28292 10.0364 5.48958 9.08726 5.48958H9.0306V5.3125C9.0306 5.02208 8.78977 4.78125 8.49935 4.78125C8.20893 4.78125 7.9681 5.02208 7.9681 5.3125V5.48958H7.75561C6.89852 5.48958 6.19727 6.21208 6.19727 7.10458C6.19727 8.13875 6.79935 8.47167 7.25977 8.63458L7.9681 8.8825V10.455H7.91144C7.55019 10.455 7.25977 10.1363 7.25977 9.74667C7.25977 9.45625 7.01893 9.21542 6.72852 9.21542C6.4381 9.21542 6.19727 9.45625 6.19727 9.74667C6.19727 10.7242 6.96228 11.5175 7.91144 11.5175H7.9681V11.6946C7.9681 11.985 8.20893 12.2258 8.49935 12.2258C8.78977 12.2258 9.0306 11.985 9.0306 11.6946V11.5175H9.24309C10.1002 11.5175 10.8014 10.795 10.8014 9.9025C10.8014 8.86125 10.1993 8.52833 9.73893 8.3725ZM7.60684 7.62167C7.36601 7.53667 7.25977 7.48708 7.25977 7.0975C7.25977 6.79291 7.48644 6.545 7.75561 6.545H7.9681V7.74208L7.60684 7.62167ZM9.24309 10.4479H9.0306V9.25083L9.39186 9.37833C9.63269 9.46333 9.73893 9.51292 9.73893 9.9025C9.73893 10.2 9.51226 10.4479 9.24309 10.4479Z" fill="white"/>
</svg>
