<svg width="17" height="17" viewBox="0 0 17 17" fill="none" xmlns="http://www.w3.org/2000/svg">
<path opacity="0.4" d="M12.041 5.48942C11.9064 5.48942 11.7719 5.43984 11.6656 5.33359C11.4602 5.12817 11.4602 4.78817 11.6656 4.58275L13.1177 3.13067C11.871 2.06817 10.2631 1.4165 8.49935 1.4165C4.58935 1.4165 1.41602 4.58984 1.41602 8.49984C1.41602 12.4098 4.58935 15.5832 8.49935 15.5832C12.4093 15.5832 15.5827 12.4098 15.5827 8.49984C15.5827 6.73609 14.931 5.12817 13.8685 3.88151L12.4164 5.33359C12.3102 5.43984 12.1756 5.48942 12.041 5.48942Z" fill="white"/>
<path d="M9.73893 8.3725L9.0306 8.12458V6.55208H9.08726C9.44851 6.55208 9.73893 6.87083 9.73893 7.26042C9.73893 7.55083 9.97977 7.79167 10.2702 7.79167C10.5606 7.79167 10.8014 7.55083 10.8014 7.26042C10.8014 6.28292 10.0364 5.48958 9.08726 5.48958H9.0306V5.3125C9.0306 5.02208 8.78977 4.78125 8.49935 4.78125C8.20893 4.78125 7.9681 5.02208 7.9681 5.3125V5.48958H7.75561C6.89852 5.48958 6.19727 6.21208 6.19727 7.10458C6.19727 8.13875 6.79935 8.47167 7.25977 8.63458L7.9681 8.8825V10.455H7.91144C7.55019 10.455 7.25977 10.1363 7.25977 9.74667C7.25977 9.45625 7.01893 9.21542 6.72852 9.21542C6.4381 9.21542 6.19727 9.45625 6.19727 9.74667C6.19727 10.7242 6.96228 11.5175 7.91144 11.5175H7.9681V11.6946C7.9681 11.985 8.20893 12.2258 8.49935 12.2258C8.78977 12.2258 9.0306 11.985 9.0306 11.6946V11.5175H9.24309C10.1002 11.5175 10.8014 10.795 10.8014 9.9025C10.8014 8.86125 10.1993 8.52833 9.73893 8.3725ZM7.60684 7.62167C7.36601 7.53667 7.25977 7.48708 7.25977 7.0975C7.25977 6.79291 7.48644 6.545 7.75561 6.545H7.9681V7.74208L7.60684 7.62167ZM9.24309 10.4479H9.0306V9.25083L9.39186 9.37833C9.63269 9.46333 9.73893 9.51292 9.73893 9.9025C9.73893 10.2 9.51226 10.4479 9.24309 10.4479Z" fill="white"/>
<path d="M16.0714 1.21134C16.0147 1.08384 15.9155 0.977588 15.7809 0.920922C15.7172 0.892588 15.6464 0.878418 15.5755 0.878418H12.7422C12.4518 0.878418 12.2109 1.11925 12.2109 1.40967C12.2109 1.70008 12.4518 1.94092 12.7422 1.94092H14.2934L13.1105 3.12384C13.3797 3.35759 13.6276 3.6055 13.8614 3.87467L15.0443 2.69176V4.25009C15.0443 4.5405 15.2851 4.78134 15.5755 4.78134C15.8659 4.78134 16.1068 4.5405 16.1068 4.25009V1.41675C16.1139 1.34592 16.0997 1.28217 16.0714 1.21134Z" fill="white"/>
</svg>
