<svg width="38" height="37" viewBox="0 0 38 37" fill="none" xmlns="http://www.w3.org/2000/svg">
<g clip-path="url(#clip0_358_10457)">
<path opacity="0.4" d="M26.5117 11.9478C26.2188 11.9478 25.9259 11.8399 25.6946 11.6087C25.2476 11.1616 25.2476 10.4216 25.6946 9.9745L28.855 6.81408C26.1417 4.50158 22.6421 3.08325 18.8034 3.08325C10.2934 3.08325 3.38672 9.98992 3.38672 18.4999C3.38672 27.0099 10.2934 33.9166 18.8034 33.9166C27.3134 33.9166 34.2201 27.0099 34.2201 18.4999C34.2201 14.6612 32.8017 11.1616 30.4892 8.44826L27.3288 11.6087C27.0976 11.8399 26.8046 11.9478 26.5117 11.9478Z" fill="white"/>
<path d="M25.4626 19.8834H23.3573V18.1066H25.4626C25.7634 18.1066 26.0413 17.9375 26.1918 17.6625C26.3423 17.3876 26.3423 17.049 26.1918 16.7741C26.0413 16.4994 25.7634 16.33 25.4626 16.33H23.3573V11.8884C23.3573 11.5708 23.1968 11.2777 22.9363 11.1189C22.6757 10.9604 22.3548 10.9604 22.0941 11.1189C21.8335 11.2777 21.6732 11.5708 21.6732 11.8884V16.33H18.1616L16.4774 12.0927H16.4773C16.2695 11.5948 15.8568 11.2249 15.3576 11.0886C14.8584 10.9525 14.3276 11.065 13.9169 11.3942C13.5063 11.7233 13.2614 12.2328 13.2521 12.7766V16.33H11.1468C10.8459 16.33 10.5681 16.4994 10.4176 16.7741C10.2671 17.0491 10.2671 17.3876 10.4176 17.6625C10.568 17.9375 10.846 18.1066 11.1468 18.1066H13.2521V19.8832L11.1468 19.8834C10.8459 19.8834 10.5681 20.0526 10.4176 20.3275C10.2671 20.6025 10.2671 20.941 10.4176 21.2159C10.568 21.4907 10.846 21.6601 11.1468 21.6601H13.2521V26.1017C13.2521 26.4192 13.4126 26.7124 13.6731 26.8711C13.9337 27.0297 14.2546 27.0297 14.5152 26.8711C14.7759 26.7124 14.9362 26.4192 14.9362 26.1017V21.6601H18.4478L20.1319 25.8974H20.1321C20.2592 26.2188 20.4729 26.4938 20.7469 26.688C21.021 26.8823 21.3429 26.9873 21.6732 26.9901C21.7851 27.0033 21.898 27.0033 22.0099 26.9901C22.396 26.907 22.7425 26.6837 22.9886 26.3592C23.2348 26.0344 23.3652 25.6291 23.3573 25.2135V21.66H25.4626C25.7634 21.66 26.0413 21.4907 26.1918 21.2159C26.3423 20.941 26.3423 20.6025 26.1918 20.3275C26.0413 20.0526 25.7634 19.8834 25.4626 19.8834L25.4626 19.8834ZM21.6732 18.1066V19.8833L19.5678 19.8834L18.869 18.1068L21.6732 18.1066ZM14.936 12.7766L16.3423 16.33H14.936V12.7766ZM14.936 19.8832V18.1065H17.0414L17.7402 19.8832H14.936ZM21.6727 25.2132L20.2665 21.6598L21.6729 21.66L21.6727 25.2132Z" fill="white"/>
<path d="M35.2849 2.63621C35.1616 2.35871 34.9457 2.12746 34.6528 2.00413C34.5141 1.94246 34.3599 1.91162 34.2057 1.91162H28.0391C27.407 1.91162 26.8828 2.43579 26.8828 3.06787C26.8828 3.69995 27.407 4.22412 28.0391 4.22412H31.4153L28.8408 6.79871C29.4266 7.30746 29.9662 7.84704 30.4749 8.43288L33.0495 5.8583V9.24996C33.0495 9.88204 33.5736 10.4062 34.2057 10.4062C34.8378 10.4062 35.362 9.88204 35.362 9.24996V3.08329C35.3774 2.92912 35.3466 2.79037 35.2849 2.63621Z" fill="white"/>
</g>
<defs>
<clipPath id="clip0_358_10457">
<rect width="37" height="37" fill="white" transform="translate(0.304688)"/>
</clipPath>
</defs>
</svg>
