<svg width="37" height="37" viewBox="0 0 37 37" fill="none" xmlns="http://www.w3.org/2000/svg">
<path opacity="0.4" d="M26.207 11.9478C25.9141 11.9478 25.6212 11.8399 25.39 11.6087C24.9429 11.1616 24.9429 10.4216 25.39 9.9745L28.5503 6.81408C25.837 4.50158 22.3374 3.08325 18.4987 3.08325C9.9887 3.08325 3.08203 9.98992 3.08203 18.4999C3.08203 27.0099 9.9887 33.9166 18.4987 33.9166C27.0087 33.9166 33.9154 27.0099 33.9154 18.4999C33.9154 14.6612 32.497 11.1616 30.1845 8.44826L27.0241 11.6087C26.7929 11.8399 26.4999 11.9478 26.207 11.9478Z" fill="white"/>
<path d="M25.1579 19.8834H23.0526V18.1066H25.1579C25.4587 18.1066 25.7366 17.9375 25.8871 17.6625C26.0376 17.3876 26.0376 17.049 25.8871 16.7741C25.7366 16.4994 25.4587 16.33 25.1579 16.33H23.0526V11.8884C23.0526 11.5708 22.8921 11.2777 22.6316 11.1189C22.371 10.9604 22.0501 10.9604 21.7895 11.1189C21.5288 11.2777 21.3685 11.5708 21.3685 11.8884V16.33H17.8569L16.1728 12.0927H16.1726C15.9648 11.5948 15.5521 11.2249 15.0529 11.0886C14.5537 10.9525 14.0229 11.065 13.6123 11.3942C13.2017 11.7233 12.9567 12.2328 12.9474 12.7766V16.33H10.8421C10.5413 16.33 10.2634 16.4994 10.1129 16.7741C9.96238 17.0491 9.96238 17.3876 10.1129 17.6625C10.2634 17.9375 10.5413 18.1066 10.8421 18.1066H12.9474V19.8832L10.8421 19.8834C10.5413 19.8834 10.2634 20.0526 10.1129 20.3275C9.96238 20.6025 9.96238 20.941 10.1129 21.2159C10.2634 21.4907 10.5413 21.6601 10.8421 21.6601H12.9474V26.1017C12.9474 26.4192 13.1079 26.7124 13.3684 26.8711C13.629 27.0297 13.9499 27.0297 14.2105 26.8711C14.4712 26.7124 14.6315 26.4192 14.6315 26.1017V21.6601H18.1431L19.8272 25.8974H19.8274C19.9545 26.2188 20.1682 26.4938 20.4423 26.688C20.7163 26.8823 21.0382 26.9873 21.3685 26.9901C21.4804 27.0033 21.5933 27.0033 21.7052 26.9901C22.0913 26.907 22.4378 26.6837 22.6839 26.3592C22.9301 26.0344 23.0605 25.6291 23.0526 25.2135V21.66H25.1579C25.4587 21.66 25.7366 21.4907 25.8871 21.2159C26.0376 20.941 26.0376 20.6025 25.8871 20.3275C25.7366 20.0526 25.4587 19.8834 25.1579 19.8834L25.1579 19.8834ZM21.3685 18.1066V19.8833L19.2632 19.8834L18.5643 18.1068L21.3685 18.1066ZM14.6313 12.7766L16.0376 16.33H14.6313V12.7766ZM14.6313 19.8832V18.1065H16.7367L17.4355 19.8832H14.6313ZM21.368 25.2132L19.9618 21.6598L21.3682 21.66L21.368 25.2132Z" fill="white"/>
<path d="M34.9802 2.63621C34.8569 2.35871 34.6411 2.12746 34.3481 2.00413C34.2094 1.94246 34.0552 1.91162 33.901 1.91162H27.7344C27.1023 1.91162 26.5781 2.43579 26.5781 3.06787C26.5781 3.69995 27.1023 4.22412 27.7344 4.22412H31.1106L28.5361 6.79871C29.1219 7.30746 29.6615 7.84704 30.1702 8.43288L32.7448 5.8583V9.24996C32.7448 9.88204 33.269 10.4062 33.901 10.4062C34.5331 10.4062 35.0573 9.88204 35.0573 9.24996V3.08329C35.0727 2.92912 35.0419 2.79037 34.9802 2.63621Z" fill="white"/>
</svg>
