<svg width="24" height="25" viewBox="0 0 24 25" fill="none" xmlns="http://www.w3.org/2000/svg">
<path d="M15.5799 12.5585C15.5799 14.5385 13.9799 16.1385 11.9999 16.1385C10.0199 16.1385 8.41992 14.5385 8.41992 12.5585C8.41992 10.5785 10.0199 8.97852 11.9999 8.97852C13.9799 8.97852 15.5799 10.5785 15.5799 12.5585Z" stroke="#6A6A6A" stroke-width="1.5" stroke-linecap="round" stroke-linejoin="round"/>
<path d="M11.9998 20.8288C15.5298 20.8288 18.8198 18.7488 21.1098 15.1488C22.0098 13.7388 22.0098 11.3688 21.1098 9.95881C18.8198 6.35881 15.5298 4.27881 11.9998 4.27881C8.46984 4.27881 5.17984 6.35881 2.88984 9.95881C1.98984 11.3688 1.98984 13.7388 2.88984 15.1488C5.17984 18.7488 8.46984 20.8288 11.9998 20.8288Z" stroke="#6A6A6A" stroke-width="1.5" stroke-linecap="round" stroke-linejoin="round"/>
</svg>
