<svg width="37" height="37" viewBox="0 0 37 37" fill="none" xmlns="http://www.w3.org/2000/svg">
<path opacity="0.4" d="M28.9961 9.63532H31.0928C30.7999 9.21907 30.4915 8.83366 30.1678 8.44824L28.9961 9.63532Z" fill="white"/>
<path opacity="0.4" d="M28.5504 6.81416C28.1649 6.49041 27.7795 6.18208 27.3633 5.88916V7.98583L28.5504 6.81416Z" fill="white"/>
<path opacity="0.4" d="M26.207 11.9478C26.0529 11.9478 25.9141 11.917 25.7599 11.8553C25.4824 11.732 25.2512 11.5162 25.1278 11.2233C25.0662 11.0845 25.0354 10.9303 25.0354 10.7762V4.6095C25.0354 4.59408 25.0508 4.57866 25.0508 4.54783C23.062 3.62283 20.842 3.08325 18.4987 3.08325C9.9887 3.08325 3.08203 9.98992 3.08203 18.4999C3.08203 27.0099 9.9887 33.9166 18.4987 33.9166C27.0087 33.9166 33.9154 27.0099 33.9154 18.4999C33.9154 16.1566 33.3758 13.9366 32.4354 11.9324C32.42 11.9324 32.4045 11.9478 32.3737 11.9478H26.207Z" fill="white"/>
<path d="M30.1849 8.44831L34.7329 3.90038C35.18 3.4533 35.18 2.7133 34.7329 2.26622C34.2858 1.81914 33.5458 1.81914 33.0987 2.26622L28.5508 6.81413C29.1366 7.32288 29.6762 7.87789 30.1849 8.44831Z" fill="white"/>
<path d="M27.3635 4.625C27.3635 3.99292 26.8393 3.46875 26.2072 3.46875C25.5906 3.46875 25.0972 3.96208 25.0664 4.56333C25.8681 4.94875 26.6389 5.38042 27.3635 5.88917V4.625Z" fill="white"/>
<path d="M33.5296 10.7917C33.5296 10.1597 33.0054 9.6355 32.3733 9.6355H31.0938C31.6025 10.3601 32.0496 11.1309 32.4196 11.9326C33.0362 11.9017 33.5296 11.4084 33.5296 10.7917Z" fill="white"/>
<path d="M25.1579 19.8834H23.0526V18.1066H25.1579C25.4587 18.1066 25.7366 17.9375 25.8871 17.6625C26.0376 17.3876 26.0376 17.049 25.8871 16.7741C25.7366 16.4994 25.4587 16.33 25.1579 16.33H23.0526V11.8884C23.0526 11.5708 22.8921 11.2777 22.6316 11.1189C22.371 10.9604 22.0501 10.9604 21.7895 11.1189C21.5288 11.2777 21.3685 11.5708 21.3685 11.8884V16.33H17.8569L16.1728 12.0927H16.1726C15.9648 11.5948 15.5521 11.2249 15.0529 11.0886C14.5537 10.9525 14.0229 11.065 13.6123 11.3942C13.2017 11.7233 12.9567 12.2328 12.9474 12.7766V16.33H10.8421C10.5413 16.33 10.2634 16.4994 10.1129 16.7741C9.96238 17.0491 9.96238 17.3876 10.1129 17.6625C10.2634 17.9375 10.5413 18.1066 10.8421 18.1066H12.9474V19.8832L10.8421 19.8834C10.5413 19.8834 10.2634 20.0526 10.1129 20.3275C9.96238 20.6025 9.96238 20.941 10.1129 21.2159C10.2634 21.4907 10.5413 21.6601 10.8421 21.6601H12.9474V26.1017C12.9474 26.4192 13.1079 26.7124 13.3684 26.8711C13.629 27.0297 13.9499 27.0297 14.2105 26.8711C14.4712 26.7124 14.6315 26.4192 14.6315 26.1017V21.6601H18.1431L19.8272 25.8974H19.8274C19.9545 26.2188 20.1682 26.4938 20.4423 26.688C20.7163 26.8823 21.0382 26.9873 21.3685 26.9901C21.4804 27.0033 21.5933 27.0033 21.7052 26.9901C22.0913 26.907 22.4378 26.6837 22.6839 26.3592C22.9301 26.0344 23.0605 25.6291 23.0526 25.2135V21.66H25.1579C25.4587 21.66 25.7366 21.4907 25.8871 21.2159C26.0376 20.941 26.0376 20.6025 25.8871 20.3275C25.7366 20.0526 25.4587 19.8834 25.1579 19.8834L25.1579 19.8834ZM21.3685 18.1066V19.8833L19.2632 19.8834L18.5643 18.1068L21.3685 18.1066ZM14.6313 12.7766L16.0376 16.33H14.6313V12.7766ZM14.6313 19.8832V18.1065H16.7367L17.4355 19.8832H14.6313ZM21.368 25.2132L19.9618 21.6598L21.3682 21.66L21.368 25.2132Z" fill="white"/>
</svg>
